# Blender 3.6.4
# www.blender.org
mtllib demo_w001_stairs.mtl
o Cube.002
v -7.820068 -0.250941 28.076994
v -7.820068 7.749057 28.076994
v -7.820068 -0.250941 20.076994
v -7.820068 7.749057 20.076994
v 0.179932 -0.250941 28.076994
v 0.179932 7.749057 28.076994
v 0.179932 -0.250941 20.076994
v 0.179932 7.749057 20.076994
v 56.179932 -0.250941 -35.923012
v 56.179932 -1.850942 -35.923012
v 56.179932 -0.250941 44.076996
v 56.179932 -1.850942 44.076996
v -23.820068 -0.250941 -35.923012
v -23.820068 -1.850942 -35.923012
v -23.820068 -0.250941 44.076996
v -23.820068 -1.850942 44.076996
v 49.017609 2.949059 0.076994
v 49.017609 -0.250941 0.076994
v 49.017609 2.949059 8.076994
v 49.017609 -0.250941 8.076994
v 23.342257 2.949059 0.076994
v 23.342257 -0.250941 0.076994
v 23.342257 2.949059 8.076994
v 23.342257 -0.250941 8.076994
v 49.017609 6.149058 8.076994
v 49.017609 -0.250941 8.076994
v 49.017609 6.149058 16.076998
v 49.017609 -0.250941 16.076998
v 23.342257 6.149058 8.076994
v 23.342257 -0.250941 8.076994
v 23.342257 6.149058 16.076998
v 23.342257 -0.250941 16.076998
v 49.017609 9.349059 16.076998
v 49.017609 -0.250941 16.076998
v 49.017609 9.349059 24.076998
v 49.017609 -0.250941 24.076998
v 23.342257 9.349059 16.076998
v 23.342257 -0.250941 16.076998
v 23.342257 9.349059 24.076998
v 23.342257 -0.250941 24.076998
v 49.017609 12.549058 24.076998
v 49.017609 -0.250940 24.076998
v 49.017609 12.549058 32.077003
v 49.017609 -0.250940 32.077003
v 23.342257 12.549058 24.076998
v 23.342257 -0.250940 24.076998
v 23.342257 12.549058 32.077003
v 23.342257 -0.250940 32.077003
v 49.017609 15.749057 32.077003
v 49.017609 -0.250941 32.077003
v 49.017609 15.749057 40.077003
v 49.017609 -0.250941 40.077003
v 23.342257 15.749057 32.077003
v 23.342257 -0.250941 32.077003
v 23.342257 15.749057 40.077003
v 23.342257 -0.250941 40.077003
v 49.017609 18.949059 40.077003
v 49.017609 -0.250941 40.077003
v 49.017609 18.949059 48.077003
v 49.017609 -0.250941 48.077003
v 23.342257 18.949059 40.077003
v 23.342257 -0.250941 40.077003
v 23.342257 18.949059 48.077003
v 23.342257 -0.250941 48.077003
v 49.017609 22.149063 48.077003
v 49.017609 -0.250941 48.077003
v 49.017609 22.149063 56.077003
v 49.017609 -0.250941 56.077003
v 23.342257 22.149063 48.077003
v 23.342257 -0.250941 48.077003
v 23.342257 22.149063 56.077003
v 23.342257 -0.250941 56.077003
v 49.017609 25.349060 56.077003
v 49.017609 -0.250941 56.077003
v 49.017609 25.349060 64.077003
v 49.017609 -0.250941 64.077003
v 23.342257 25.349060 56.077003
v 23.342257 -0.250941 56.077003
v 23.342257 25.349060 64.077003
v 23.342257 -0.250941 64.077003
v 49.017609 28.549057 64.077003
v 49.017609 -0.250941 64.077003
v 49.017609 28.549057 72.077003
v 49.017609 -0.250941 72.077003
v 23.342257 28.549057 64.077003
v 23.342257 -0.250941 64.077003
v 23.342257 28.549057 72.077003
v 23.342257 -0.250941 72.077003
v 49.017609 31.749062 72.077003
v 49.017609 -0.250941 72.077003
v 49.017609 31.749062 80.077003
v 49.017609 -0.250941 80.077003
v 23.342257 31.749062 72.077003
v 23.342257 -0.250941 72.077003
v 23.342257 31.749062 80.077003
v 23.342257 -0.250941 80.077003
v 49.017609 34.949059 80.077003
v 49.017609 -0.250941 80.077003
v 49.017609 34.949059 88.077019
v 49.017609 -0.250941 88.077019
v 23.342257 34.949059 80.077003
v 23.342257 -0.250941 80.077003
v 23.342257 34.949059 88.077019
v 23.342257 -0.250941 88.077019
v 49.017609 38.149055 88.077019
v 49.017609 -0.250941 88.077019
v 49.017609 38.149055 96.077019
v 49.017609 -0.250941 96.077019
v 23.342257 38.149055 88.077019
v 23.342257 -0.250941 88.077019
v 23.342257 38.149055 96.077019
v 23.342257 -0.250941 96.077019
v 49.017609 41.349060 96.077019
v 49.017609 -0.250940 96.077019
v 49.017609 41.349060 104.077019
v 49.017609 -0.250940 104.077019
v 23.342257 41.349060 96.077019
v 23.342257 -0.250940 96.077019
v 23.342257 41.349060 104.077019
v 23.342257 -0.250940 104.077019
v 49.017609 44.549057 104.077019
v 49.017609 -0.250941 104.077019
v 49.017609 44.549057 112.077019
v 49.017609 -0.250941 112.077019
v 23.342257 44.549057 104.077019
v 23.342257 -0.250941 104.077019
v 23.342257 44.549057 112.077019
v 23.342257 -0.250941 112.077019
v 38.560272 -74.184998 36.317223
v 39.478836 0.244359 111.529655
v 38.560272 -68.208054 30.999704
v 38.560272 0.159413 107.845451
v 46.560272 -74.184998 36.317223
v 47.478836 0.244359 111.529655
v 46.560272 -68.208054 30.999704
v 46.560272 0.159413 107.845451
v 0.963284 -74.184998 40.381599
v 25.940105 0.093709 111.144875
v -0.749979 -68.208054 35.347633
v 24.009090 0.159413 108.095543
v 8.536678 -74.184998 37.804062
v 33.513504 0.093709 108.567345
v 6.823416 -68.208054 32.770103
v 31.582487 0.159413 105.518013
v 7.681474 -70.965530 38.899300
v -15.079979 -1.352126 -31.587111
v 8.809357 -64.988571 43.933266
v -13.366711 -0.726859 -26.553144
v 2.695724 -70.965530 41.476837
v -22.653374 -1.352126 -29.009573
v 3.823608 -64.988571 46.510803
v -20.940109 -0.726859 -23.975607
v 44.866623 -72.908096 36.291451
v 46.560257 -1.441646 -30.318594
v 44.866631 -66.931137 41.608971
v 46.560265 -1.311042 -24.680761
v 39.239159 -72.908096 36.291451
v 38.560257 -1.441646 -30.318594
v 39.239159 -66.931137 41.608971
v 38.560265 -1.311042 -24.680758
vn -1.0000 -0.0000 -0.0000
vn -0.0000 -0.0000 -1.0000
vn 1.0000 -0.0000 -0.0000
vn -0.0000 -0.0000 1.0000
vn -0.0000 -1.0000 -0.0000
vn -0.0000 1.0000 -0.0000
vn -0.0000 0.7471 -0.6647
vn -0.0000 -0.7108 0.7034
vn -0.0000 -0.6647 -0.7471
vn -0.0000 0.9997 -0.0231
vn -0.9467 -0.0000 0.3222
vn -0.2142 0.7471 -0.6292
vn 0.9467 -0.0000 -0.3222
vn 0.2267 -0.7107 0.6660
vn -0.2407 -0.6647 -0.7073
vn 0.0060 0.9998 0.0177
vn 0.9633 0.0416 -0.2652
vn 0.3011 0.7550 0.5825
vn -0.9572 -0.0580 0.2834
vn -0.3141 -0.7295 -0.6075
vn 0.3525 -0.6409 0.6819
vn -0.0376 0.9932 -0.1106
vn 0.9998 -0.0121 0.0136
vn -0.0000 0.7107 0.7035
vn -1.0000 -0.0048 0.0054
vn -0.0000 -0.6818 -0.7315
vn -0.0000 -0.6647 0.7471
vn -0.0000 0.9997 -0.0232
vn -0.9427 -0.2313 0.2404
vn 0.9427 0.2313 -0.2404
vn -0.8269 -0.2164 0.5190
vn 0.8269 0.2164 -0.5190
vn 0.9471 -0.0148 -0.3205
vn 0.2115 0.7545 0.6213
vn -0.9459 -0.0164 0.3240
vn -0.2207 -0.7286 -0.6484
vn 0.9997 -0.0232 0.0005
vn -1.0000 -0.0093 0.0002
vt 0.790215 0.395357
vt 0.816657 0.421836
vt 0.790215 0.421821
vt 0.871457 0.416780
vt 0.897923 0.390314
vt 0.897923 0.416780
vt 0.871396 0.242116
vt 0.897851 0.268577
vt 0.871396 0.268582
vt 0.912089 0.416780
vt 0.938555 0.390314
vt 0.938555 0.416780
vt 0.938483 0.268578
vt 0.912017 0.242112
vt 0.938483 0.242112
vt 0.694812 0.966448
vt 0.668347 0.939982
vt 0.694812 0.939982
vt 0.594049 0.271742
vt 0.329397 0.007086
vt 0.594049 0.007083
vt 0.309937 0.608878
vt 0.315230 0.344219
vt 0.315230 0.608878
vt 0.234208 0.350758
vt 0.228762 0.615175
vt 0.228915 0.350758
vt 0.329397 0.550570
vt 0.594056 0.285911
vt 0.594056 0.550570
vt 0.608266 0.550457
vt 0.613515 0.285911
vt 0.613559 0.550457
vt 0.608216 0.271742
vt 0.613509 0.007083
vt 0.613509 0.271742
vt 0.915739 0.092023
vt 0.889273 0.007083
vt 0.915739 0.007083
vt 0.133015 0.545973
vt 0.143601 0.461033
vt 0.143601 0.545973
vt 0.479736 0.826220
vt 0.469135 0.852661
vt 0.469150 0.826220
vt 0.033549 0.959891
vt 0.007083 0.874951
vt 0.033549 0.874951
vt 0.047718 0.742346
vt 0.058300 0.715891
vt 0.058304 0.742346
vt 0.052906 0.555341
vt 0.063492 0.470401
vt 0.063492 0.555341
vt 0.919502 0.831037
vt 0.893037 0.746097
vt 0.919502 0.746097
vt 0.133015 0.446867
vt 0.154188 0.361927
vt 0.154188 0.446867
vt 0.068900 0.594030
vt 0.047713 0.620472
vt 0.047729 0.594030
vt 0.956371 0.092023
vt 0.929905 0.007083
vt 0.956371 0.007083
vt 0.047718 0.661093
vt 0.068886 0.634638
vt 0.068890 0.661093
vt 0.052906 0.456235
vt 0.074079 0.371295
vt 0.074079 0.456235
vt 0.913813 0.370851
vt 0.887348 0.285911
vt 0.913813 0.285911
vt 0.726832 0.904643
vt 0.758591 0.819703
vt 0.758591 0.904643
vt 0.830788 0.236811
vt 0.857230 0.268582
vt 0.830788 0.268567
vt 0.960134 0.731930
vt 0.933668 0.646990
vt 0.960134 0.646990
vt 0.830836 0.385022
vt 0.857291 0.416776
vt 0.830836 0.416780
vt 0.772758 0.904643
vt 0.804517 0.819703
vt 0.804517 0.904643
vt 0.536197 0.921495
vt 0.509732 0.836555
vt 0.536197 0.836555
vt 0.830788 0.222644
vt 0.873133 0.137704
vt 0.873133 0.222644
vt 0.550364 0.935661
vt 0.576806 0.978018
vt 0.550364 0.978003
vt 0.155343 0.964873
vt 0.128877 0.879933
vt 0.155343 0.879933
vt 0.627726 0.939986
vt 0.654180 0.982327
vt 0.627726 0.982331
vt 0.830836 0.370851
vt 0.873182 0.285911
vt 0.873182 0.370851
vt 0.919502 0.930144
vt 0.893037 0.845204
vt 0.919502 0.845204
vt 0.825939 0.731930
vt 0.878870 0.646990
vt 0.878870 0.731930
vt 0.469124 0.925326
vt 0.495566 0.978269
vt 0.469124 0.978253
vt 0.213817 0.964876
vt 0.187351 0.879935
vt 0.213817 0.879935
vt 0.509732 0.935666
vt 0.536187 0.988592
vt 0.509732 0.988597
vt 0.825939 0.831037
vt 0.878870 0.746097
vt 0.878870 0.831037
vt 0.576829 0.921495
vt 0.550364 0.836555
vt 0.576829 0.836555
vt 0.428503 0.812053
vt 0.492021 0.727113
vt 0.492021 0.812053
vt 0.767453 0.918809
vt 0.793895 0.982337
vt 0.767453 0.982321
vt 0.355863 0.932081
vt 0.329397 0.847141
vt 0.355863 0.847141
vt 0.428503 0.925331
vt 0.454958 0.988843
vt 0.428503 0.988848
vt 0.007083 0.860784
vt 0.070601 0.775844
vt 0.070601 0.860784
vt 0.919502 0.731930
vt 0.893037 0.646991
vt 0.919502 0.646990
vt 0.825939 0.632824
vt 0.900043 0.547884
vt 0.900043 0.632824
vt 0.954842 0.547884
vt 0.981283 0.621997
vt 0.954842 0.621982
vt 0.396495 0.932081
vt 0.370029 0.847141
vt 0.396495 0.847141
vt 0.726832 0.918813
vt 0.753287 0.992912
vt 0.726832 0.992917
vt 0.808093 0.522643
vt 0.882197 0.437703
vt 0.882197 0.522643
vt 0.654191 0.925815
vt 0.627726 0.840876
vt 0.654191 0.840875
vt 0.228762 0.866070
vt 0.313453 0.781130
vt 0.313453 0.866070
vt 0.228762 0.880237
vt 0.255204 0.964935
vt 0.228762 0.964920
vt 0.940675 0.632824
vt 0.914209 0.547884
vt 0.940675 0.547884
vt 0.269370 0.880241
vt 0.295825 0.964926
vt 0.269370 0.964931
vt 0.088245 0.865767
vt 0.172936 0.780827
vt 0.172936 0.865767
vt 0.694823 0.925815
vt 0.668357 0.840876
vt 0.694823 0.840875
vt 0.708986 0.437703
vt 0.793926 0.532980
vt 0.708986 0.532980
vt 0.790180 0.137704
vt 0.816622 0.232988
vt 0.790180 0.232972
vt 0.954397 0.222644
vt 0.927931 0.137704
vt 0.954397 0.137704
vt 0.790215 0.285915
vt 0.816670 0.381186
vt 0.790215 0.381191
vt 0.790167 0.007083
vt 0.875107 0.102360
vt 0.790167 0.102360
vt 0.922829 0.522642
vt 0.896364 0.437703
vt 0.922829 0.437702
vt 0.509732 0.716525
vt 0.594672 0.822388
vt 0.509732 0.822388
vt 0.708938 0.158874
vt 0.735380 0.264743
vt 0.708938 0.264728
vt 0.960134 0.831037
vt 0.933668 0.746097
vt 0.960134 0.746097
vt 0.749594 0.285915
vt 0.776049 0.391773
vt 0.749594 0.391777
vt 0.329397 0.727111
vt 0.414337 0.832975
vt 0.329397 0.832975
vt 0.454969 0.911160
vt 0.428503 0.826220
vt 0.454969 0.826220
vt 0.726832 0.689086
vt 0.811772 0.805536
vt 0.726832 0.805536
vt 0.749559 0.007083
vt 0.776001 0.123538
vt 0.749559 0.123522
vt 0.954446 0.370851
vt 0.927980 0.285911
vt 0.954446 0.285911
vt 0.749559 0.137709
vt 0.776013 0.254152
vt 0.749559 0.254156
vt 0.627726 0.710259
vt 0.712666 0.826709
vt 0.627726 0.826709
vt 0.913765 0.222644
vt 0.887300 0.137704
vt 0.913765 0.137704
vt 0.088245 0.639624
vt 0.173185 0.766660
vt 0.088245 0.766660
vt 0.007083 0.634638
vt 0.033525 0.761678
vt 0.007083 0.761662
vt 0.960134 0.930144
vt 0.933668 0.845204
vt 0.960134 0.845204
vt 0.187351 0.639628
vt 0.213806 0.766658
vt 0.187351 0.766663
vt 0.726832 0.547884
vt 0.811772 0.674920
vt 0.726832 0.674920
vt 0.213817 0.865769
vt 0.187351 0.780829
vt 0.213817 0.780829
vt 0.509732 0.564736
vt 0.594672 0.702359
vt 0.509732 0.702359
vt 0.708986 0.285911
vt 0.735428 0.423536
vt 0.708986 0.423521
vt 0.963461 0.522643
vt 0.936995 0.437703
vt 0.963461 0.437703
vt 0.708938 0.007088
vt 0.735392 0.144703
vt 0.708938 0.144708
vt 0.228762 0.629341
vt 0.313702 0.766964
vt 0.228762 0.766964
vt 0.852404 0.930143
vt 0.825939 0.845204
vt 0.852404 0.845203
vt 0.627726 0.547884
vt 0.712666 0.696093
vt 0.627726 0.696093
vt 0.469124 0.564736
vt 0.495566 0.712947
vt 0.469124 0.712931
vt 0.114711 0.964873
vt 0.088245 0.879933
vt 0.114711 0.879933
vt 0.428503 0.564740
vt 0.454958 0.712942
vt 0.428503 0.712947
vt 0.329397 0.564736
vt 0.414337 0.712945
vt 0.329397 0.712945
vt 0.047670 0.357128
vt 0.056155 0.016002
vt 0.074079 0.355712
vt 0.248374 0.356852
vt 0.277722 0.612291
vt 0.251259 0.612627
vt 0.025060 0.015992
vt 0.033504 0.357143
vt 0.007083 0.355734
vt 0.007083 0.620148
vt 0.033547 0.371633
vt 0.033547 0.620472
vt 0.047713 0.675259
vt 0.067487 0.701725
vt 0.047713 0.701725
vt 0.274838 0.356517
vt 0.251259 0.344625
vt 0.277722 0.344290
vt 0.088245 0.348051
vt 0.095882 0.014077
vt 0.114174 0.345567
vt 0.168354 0.363971
vt 0.197502 0.619518
vt 0.171037 0.619778
vt 0.146618 0.014029
vt 0.154188 0.347760
vt 0.128341 0.345169
vt 0.627675 0.255339
vt 0.654139 0.007381
vt 0.654139 0.255637
vt 0.133015 0.565808
vt 0.152788 0.585194
vt 0.133015 0.590862
vt 0.194819 0.363710
vt 0.171037 0.352337
vt 0.197502 0.352077
vt 0.208372 0.336592
vt 0.221598 0.017660
vt 0.234208 0.334726
vt 0.109211 0.364977
vt 0.088245 0.607850
vt 0.090850 0.362218
vt 0.180973 0.017754
vt 0.194205 0.337911
vt 0.168354 0.336128
vt 0.654188 0.533717
vt 0.635781 0.288353
vt 0.654188 0.285911
vt 0.790180 0.247154
vt 0.806388 0.270335
vt 0.790180 0.267276
vt 0.114711 0.607852
vt 0.088245 0.625455
vt 0.288885 0.330053
vt 0.302825 0.019470
vt 0.315230 0.327564
vt 0.688817 0.007083
vt 0.668306 0.224871
vt 0.670200 0.007084
vt 0.260785 0.019465
vt 0.274718 0.330123
vt 0.248374 0.327636
vt 0.668354 0.285911
vt 0.689217 0.522339
vt 0.670600 0.522339
vt 0.151632 0.605028
vt 0.133015 0.624802
vt 0.133015 0.605028
vt 0.694771 0.243524
vt 0.668306 0.243525
vt 0.816657 0.395373
vt 0.871457 0.390314
vt 0.897851 0.242112
vt 0.912089 0.390314
vt 0.912017 0.268578
vt 0.668347 0.966448
vt 0.329397 0.271744
vt 0.309937 0.344219
vt 0.234055 0.615175
vt 0.329397 0.285911
vt 0.608222 0.285911
vt 0.608216 0.007083
vt 0.889273 0.092023
vt 0.133015 0.461033
vt 0.479720 0.852661
vt 0.007083 0.959891
vt 0.047713 0.715891
vt 0.052906 0.470401
vt 0.893037 0.831037
vt 0.133015 0.361927
vt 0.068884 0.620472
vt 0.929905 0.092023
vt 0.047713 0.634638
vt 0.052906 0.371295
vt 0.887348 0.370851
vt 0.726832 0.819703
vt 0.857230 0.236826
vt 0.933668 0.731930
vt 0.857291 0.385017
vt 0.772758 0.819703
vt 0.509732 0.921495
vt 0.830788 0.137704
vt 0.576806 0.935677
vt 0.128877 0.964873
vt 0.654180 0.939982
vt 0.830836 0.285911
vt 0.893037 0.930144
vt 0.825939 0.646990
vt 0.495566 0.925342
vt 0.187351 0.964876
vt 0.536187 0.935661
vt 0.825939 0.746097
vt 0.550364 0.921495
vt 0.428503 0.727113
vt 0.793895 0.918824
vt 0.329397 0.932081
vt 0.454958 0.925326
vt 0.007083 0.775844
vt 0.893037 0.731931
vt 0.825939 0.547884
vt 0.981283 0.547899
vt 0.370029 0.932081
vt 0.753287 0.918809
vt 0.808093 0.437703
vt 0.627726 0.925816
vt 0.228762 0.781130
vt 0.255204 0.880252
vt 0.914209 0.632824
vt 0.295825 0.880237
vt 0.088245 0.780827
vt 0.668357 0.925816
vt 0.793926 0.437703
vt 0.816622 0.137719
vt 0.927931 0.222644
vt 0.816670 0.285911
vt 0.875107 0.007083
vt 0.896364 0.522643
vt 0.594672 0.716525
vt 0.735380 0.158890
vt 0.933668 0.831037
vt 0.776049 0.285911
vt 0.414337 0.727111
vt 0.428503 0.911160
vt 0.811772 0.689086
vt 0.776001 0.007098
vt 0.927980 0.370851
vt 0.776013 0.137704
vt 0.712666 0.710259
vt 0.887300 0.222644
vt 0.173185 0.639624
vt 0.033525 0.634653
vt 0.933668 0.930144
vt 0.213806 0.639624
vt 0.811772 0.547884
vt 0.187351 0.865769
vt 0.594672 0.564736
vt 0.735428 0.285926
vt 0.936995 0.522643
vt 0.735392 0.007083
vt 0.313702 0.629341
vt 0.825939 0.930143
vt 0.712666 0.547884
vt 0.495566 0.564751
vt 0.088245 0.964873
vt 0.454958 0.564736
vt 0.414337 0.564736
vt 0.047670 0.007083
vt 0.033504 0.007083
vt 0.007083 0.371309
vt 0.067487 0.675259
vt 0.088245 0.007083
vt 0.154188 0.007083
vt 0.627675 0.007083
vt 0.152788 0.560140
vt 0.208372 0.007083
vt 0.194205 0.007083
vt 0.627726 0.533263
vt 0.806388 0.250213
vt 0.114711 0.625458
vt 0.288885 0.007083
vt 0.694771 0.224870
vt 0.274718 0.007083
vt 0.694820 0.285911
vt 0.151632 0.624802
s 0
usemtl std_atlas
f 2/1/1 3/2/1 1/3/1
f 4/4/2 7/5/2 3/6/2
f 8/7/3 5/8/3 7/9/3
f 6/10/4 1/11/4 5/12/4
f 7/13/5 1/14/5 3/15/5
f 4/16/6 6/17/6 8/18/6
f 13/19/6 11/20/6 9/21/6
f 11/22/4 16/23/4 12/24/4
f 15/25/1 14/26/1 16/27/1
f 10/28/5 16/29/5 14/30/5
f 9/31/3 12/32/3 10/33/3
f 13/34/2 10/35/2 14/36/2
f 21/37/6 19/38/6 17/39/6
f 19/40/4 24/41/4 20/42/4
f 23/43/1 22/44/1 24/45/1
f 18/46/5 24/47/5 22/48/5
f 17/49/3 20/50/3 18/51/3
f 21/52/2 18/53/2 22/54/2
f 29/55/6 27/56/6 25/57/6
f 27/58/4 32/59/4 28/60/4
f 31/61/1 30/62/1 32/63/1
f 26/64/5 32/65/5 30/66/5
f 25/67/3 28/68/3 26/69/3
f 29/70/2 26/71/2 30/72/2
f 37/73/6 35/74/6 33/75/6
f 35/76/4 40/77/4 36/78/4
f 39/79/1 38/80/1 40/81/1
f 34/82/5 40/83/5 38/84/5
f 33/85/3 36/86/3 34/87/3
f 37/88/2 34/89/2 38/90/2
f 45/91/6 43/92/6 41/93/6
f 43/94/4 48/95/4 44/96/4
f 47/97/1 46/98/1 48/99/1
f 42/100/5 48/101/5 46/102/5
f 41/103/3 44/104/3 42/105/3
f 45/106/2 42/107/2 46/108/2
f 53/109/6 51/110/6 49/111/6
f 51/112/4 56/113/4 52/114/4
f 55/115/1 54/116/1 56/117/1
f 50/118/5 56/119/5 54/120/5
f 49/121/3 52/122/3 50/123/3
f 53/124/2 50/125/2 54/126/2
f 61/127/6 59/128/6 57/129/6
f 59/130/4 64/131/4 60/132/4
f 63/133/1 62/134/1 64/135/1
f 58/136/5 64/137/5 62/138/5
f 57/139/3 60/140/3 58/141/3
f 61/142/2 58/143/2 62/144/2
f 69/145/6 67/146/6 65/147/6
f 67/148/4 72/149/4 68/150/4
f 71/151/1 70/152/1 72/153/1
f 66/154/5 72/155/5 70/156/5
f 65/157/3 68/158/3 66/159/3
f 69/160/2 66/161/2 70/162/2
f 77/163/6 75/164/6 73/165/6
f 75/166/4 80/167/4 76/168/4
f 79/169/1 78/170/1 80/171/1
f 74/172/5 80/173/5 78/174/5
f 73/175/3 76/176/3 74/177/3
f 77/178/2 74/179/2 78/180/2
f 85/181/6 83/182/6 81/183/6
f 83/184/4 88/185/4 84/186/4
f 87/187/1 86/188/1 88/189/1
f 82/190/5 88/191/5 86/192/5
f 81/193/3 84/194/3 82/195/3
f 85/196/2 82/197/2 86/198/2
f 93/199/6 91/200/6 89/201/6
f 91/202/4 96/203/4 92/204/4
f 95/205/1 94/206/1 96/207/1
f 90/208/5 96/209/5 94/210/5
f 89/211/3 92/212/3 90/213/3
f 93/214/2 90/215/2 94/216/2
f 101/217/6 99/218/6 97/219/6
f 99/220/4 104/221/4 100/222/4
f 103/223/1 102/224/1 104/225/1
f 98/226/5 104/227/5 102/228/5
f 97/229/3 100/230/3 98/231/3
f 101/232/2 98/233/2 102/234/2
f 109/235/6 107/236/6 105/237/6
f 107/238/4 112/239/4 108/240/4
f 111/241/1 110/242/1 112/243/1
f 106/244/5 112/245/5 110/246/5
f 105/247/3 108/248/3 106/249/3
f 109/250/2 106/251/2 110/252/2
f 117/253/6 115/254/6 113/255/6
f 115/256/4 120/257/4 116/258/4
f 119/259/1 118/260/1 120/261/1
f 114/262/5 120/263/5 118/264/5
f 113/265/3 116/266/3 114/267/3
f 117/268/2 114/269/2 118/270/2
f 125/271/6 123/272/6 121/273/6
f 123/274/4 128/275/4 124/276/4
f 127/277/1 126/278/1 128/279/1
f 122/280/5 128/281/5 126/282/5
f 121/283/3 124/284/3 122/285/3
f 125/286/2 122/287/2 126/288/2
f 129/289/1 132/290/1 131/291/1
f 132/292/7 135/293/7 131/294/7
f 136/295/3 133/296/3 135/297/3
f 133/298/8 130/299/8 129/300/8
f 135/301/9 129/302/9 131/303/9
f 136/304/10 130/305/10 134/306/10
f 137/307/11 140/308/11 139/309/11
f 140/310/12 143/311/12 139/312/12
f 144/313/13 141/314/13 143/315/13
f 141/316/14 138/317/14 137/318/14
f 143/319/15 137/320/15 139/321/15
f 144/322/16 138/323/16 142/324/16
f 145/325/17 148/326/17 147/327/17
f 147/328/18 152/329/18 151/330/18
f 152/331/19 149/332/19 151/333/19
f 150/334/20 145/335/20 149/336/20
f 147/337/21 149/338/21 145/339/21
f 148/340/22 150/341/22 152/329/22
f 153/342/23 156/343/23 155/344/23
f 155/345/24 160/346/24 159/347/24
f 160/348/25 157/349/25 159/350/25
f 158/351/26 153/352/26 157/353/26
f 159/354/27 153/355/27 155/356/27
f 160/346/28 154/357/28 158/358/28
f 2/1/1 4/359/1 3/2/1
f 4/4/2 8/360/2 7/5/2
f 8/7/3 6/361/3 5/8/3
f 6/10/4 2/362/4 1/11/4
f 7/13/5 5/363/5 1/14/5
f 4/16/6 2/364/6 6/17/6
f 13/19/6 15/365/6 11/20/6
f 11/22/4 15/366/4 16/23/4
f 15/25/1 13/367/1 14/26/1
f 10/28/5 12/368/5 16/29/5
f 9/31/3 11/369/3 12/32/3
f 13/34/2 9/370/2 10/35/2
f 21/37/6 23/371/6 19/38/6
f 19/40/4 23/372/4 24/41/4
f 23/43/1 21/373/1 22/44/1
f 18/46/5 20/374/5 24/47/5
f 17/49/3 19/375/3 20/50/3
f 21/52/2 17/376/2 18/53/2
f 29/55/6 31/377/6 27/56/6
f 27/58/4 31/378/4 32/59/4
f 31/61/1 29/379/1 30/62/1
f 26/64/5 28/380/5 32/65/5
f 25/67/3 27/381/3 28/68/3
f 29/70/2 25/382/2 26/71/2
f 37/73/6 39/383/6 35/74/6
f 35/76/4 39/384/4 40/77/4
f 39/79/1 37/385/1 38/80/1
f 34/82/5 36/386/5 40/83/5
f 33/85/3 35/387/3 36/86/3
f 37/88/2 33/388/2 34/89/2
f 45/91/6 47/389/6 43/92/6
f 43/94/4 47/390/4 48/95/4
f 47/97/1 45/391/1 46/98/1
f 42/100/5 44/392/5 48/101/5
f 41/103/3 43/393/3 44/104/3
f 45/106/2 41/394/2 42/107/2
f 53/109/6 55/395/6 51/110/6
f 51/112/4 55/396/4 56/113/4
f 55/115/1 53/397/1 54/116/1
f 50/118/5 52/398/5 56/119/5
f 49/121/3 51/399/3 52/122/3
f 53/124/2 49/400/2 50/125/2
f 61/127/6 63/401/6 59/128/6
f 59/130/4 63/402/4 64/131/4
f 63/133/1 61/403/1 62/134/1
f 58/136/5 60/404/5 64/137/5
f 57/139/3 59/405/3 60/140/3
f 61/142/2 57/406/2 58/143/2
f 69/145/6 71/407/6 67/146/6
f 67/148/4 71/408/4 72/149/4
f 71/151/1 69/409/1 70/152/1
f 66/154/5 68/410/5 72/155/5
f 65/157/3 67/411/3 68/158/3
f 69/160/2 65/412/2 66/161/2
f 77/163/6 79/413/6 75/164/6
f 75/166/4 79/414/4 80/167/4
f 79/169/1 77/415/1 78/170/1
f 74/172/5 76/416/5 80/173/5
f 73/175/3 75/417/3 76/176/3
f 77/178/2 73/418/2 74/179/2
f 85/181/6 87/419/6 83/182/6
f 83/184/4 87/420/4 88/185/4
f 87/187/1 85/421/1 86/188/1
f 82/190/5 84/422/5 88/191/5
f 81/193/3 83/423/3 84/194/3
f 85/196/2 81/424/2 82/197/2
f 93/199/6 95/425/6 91/200/6
f 91/202/4 95/426/4 96/203/4
f 95/205/1 93/427/1 94/206/1
f 90/208/5 92/428/5 96/209/5
f 89/211/3 91/429/3 92/212/3
f 93/214/2 89/430/2 90/215/2
f 101/217/6 103/431/6 99/218/6
f 99/220/4 103/432/4 104/221/4
f 103/223/1 101/433/1 102/224/1
f 98/226/5 100/434/5 104/227/5
f 97/229/3 99/435/3 100/230/3
f 101/232/2 97/436/2 98/233/2
f 109/235/6 111/437/6 107/236/6
f 107/238/4 111/438/4 112/239/4
f 111/241/1 109/439/1 110/242/1
f 106/244/5 108/440/5 112/245/5
f 105/247/3 107/441/3 108/248/3
f 109/250/2 105/442/2 106/251/2
f 117/253/6 119/443/6 115/254/6
f 115/256/4 119/444/4 120/257/4
f 119/259/1 117/445/1 118/260/1
f 114/262/5 116/446/5 120/263/5
f 113/265/3 115/447/3 116/266/3
f 117/268/2 113/448/2 114/269/2
f 125/271/6 127/449/6 123/272/6
f 123/274/4 127/450/4 128/275/4
f 127/277/1 125/451/1 126/278/1
f 122/280/5 124/452/5 128/281/5
f 121/283/3 123/453/3 124/284/3
f 125/286/2 121/454/2 122/287/2
f 129/289/29 130/455/29 132/290/29
f 132/292/7 136/304/7 135/293/7
f 136/295/30 134/456/30 133/296/30
f 133/298/8 134/457/8 130/299/8
f 135/301/9 133/458/9 129/302/9
f 136/304/10 132/292/10 130/305/10
f 137/307/31 138/459/31 140/308/31
f 140/310/12 144/322/12 143/311/12
f 144/313/32 142/460/32 141/314/32
f 141/316/14 142/461/14 138/317/14
f 143/319/15 141/462/15 137/320/15
f 144/322/16 140/310/16 138/323/16
f 145/325/33 146/463/33 148/326/33
f 147/328/34 148/340/34 152/329/34
f 152/331/35 150/464/35 149/332/35
f 150/334/36 146/465/36 145/335/36
f 147/337/21 151/466/21 149/338/21
f 148/340/22 146/467/22 150/341/22
f 153/342/37 154/468/37 156/343/37
f 155/345/24 156/469/24 160/346/24
f 160/348/38 158/470/38 157/349/38
f 158/351/26 154/471/26 153/352/26
f 159/354/27 157/472/27 153/355/27
f 160/346/28 156/469/28 154/357/28
